<svg width="158" height="158" viewBox="0 0 158 158" fill="none" xmlns="http://www.w3.org/2000/svg">
<g filter="url(#filter0_d_2_2143)">
<circle cx="79" cy="75" r="74.5" fill="white" stroke="#0066FF"/>
<path d="M86.746 61.6294L86.746 61.6296L86.7571 61.6356C86.9626 61.7479 87.1432 61.9005 87.2882 62.0843C87.4331 62.2682 87.5393 62.4794 87.6005 62.7053C87.6616 62.9311 87.6765 63.167 87.644 63.3988C87.6116 63.6305 87.5326 63.8534 87.4118 64.0538L87.4118 64.0538L87.4072 64.0617L74.3194 86.7062C74.3191 86.7068 74.3187 86.7074 74.3184 86.708C74.1592 86.9772 73.9328 87.2005 73.6615 87.3562C73.3895 87.5123 73.0816 87.595 72.768 87.5964L72.7583 87.5964L72.7487 87.5968C72.4481 87.6097 72.1505 87.5329 71.8938 87.3763L71.8871 87.3723L71.8804 87.3684C71.6768 87.2528 71.4982 87.098 71.3548 86.913C71.2114 86.728 71.1061 86.5165 71.045 86.2906C70.9838 86.0648 70.968 85.8291 70.9985 85.5971C71.029 85.3651 71.1051 85.1414 71.2226 84.939L71.223 84.9383L84.313 62.2899L84.3147 62.2869C84.4304 62.0835 84.5853 61.9049 84.7704 61.7616C84.9555 61.6183 85.1672 61.513 85.3932 61.4519C85.6193 61.3907 85.8552 61.3749 86.0874 61.4054C86.3196 61.4359 86.5435 61.512 86.746 61.6294ZM76.4504 68.7272L76.4497 68.7474L76.4505 68.7677C76.5344 70.7292 75.8366 72.6439 74.5101 74.092C73.1887 75.5346 71.3508 76.3968 69.3967 76.4915C67.4392 76.3967 65.5973 75.5353 64.27 74.0934C62.9376 72.6459 62.2318 70.7307 62.3064 68.7652L62.3071 68.7474L62.3065 68.7296C62.2412 66.7701 62.9511 64.8637 64.2825 63.4236C65.6088 61.9892 67.4453 61.1326 69.3967 61.0377C71.3446 61.1325 73.1771 61.99 74.4975 63.425C75.823 64.8657 76.525 66.7716 76.4504 68.7272ZM69.3393 72.9078L69.3968 72.9144L69.4543 72.9078C70.4602 72.7912 71.3805 72.2855 72.018 71.4989C72.645 70.7252 72.9493 69.7402 72.8689 68.749C72.9603 67.754 72.6596 66.7617 72.0296 65.9843C71.3891 65.194 70.4608 64.6904 69.4489 64.5842L69.3967 64.5788L69.3446 64.5842C68.331 64.6906 67.4002 65.1919 66.7539 65.9797C66.1169 66.7561 65.807 67.7492 65.8884 68.7489C65.8177 69.7449 66.1311 70.7308 66.7652 71.5036C67.4086 72.2878 68.3316 72.7912 69.3393 72.9078ZM82.2163 80.2384L82.2172 80.2182L82.2164 80.198C82.1418 78.2423 82.8438 76.3364 84.1693 74.8958C85.4897 73.4608 87.3223 72.6033 89.2701 72.5085C91.2215 72.6034 93.058 73.4599 94.3843 74.8944C95.7157 76.3344 96.4257 78.2408 96.3604 80.2004L96.3598 80.2182L96.3604 80.236C96.435 82.2014 95.7292 84.1167 94.3968 85.5642C93.0695 87.0061 91.2277 87.8675 89.2701 87.9623C87.316 87.8676 85.4781 87.0054 84.1567 85.5628C82.8302 84.1147 82.1324 82.1999 82.2163 80.2384ZM89.2125 84.3785L89.27 84.3852L89.3275 84.3786C90.3352 84.262 91.2583 83.7586 91.9016 82.9744C92.5357 82.2016 92.8491 81.2157 92.7784 80.2197C92.8599 79.2199 92.5499 78.2269 91.9129 77.4505C91.2666 76.6627 90.3358 76.1614 89.3223 76.055L89.2674 76.0493L89.2125 76.0556C88.2066 76.1722 87.2863 76.6779 86.6489 77.4645C86.0212 78.2389 85.717 79.2249 85.7982 80.2171C85.717 81.2092 86.0212 82.1952 86.6489 82.9697C87.2863 83.7563 88.2066 84.262 89.2125 84.3785Z" fill="#0066FF" stroke="#0066FF"/>
<path d="M79.3176 47.5139L79.3333 47.5144L79.3491 47.5139C86.7517 47.2809 93.9443 49.9937 99.3474 55.0565C104.746 60.1155 107.918 67.1078 108.166 74.5C107.918 81.8922 104.746 88.8845 99.3474 93.9435C93.9443 99.0063 86.7517 101.719 79.3491 101.486L79.3333 101.486L79.3176 101.486C71.915 101.719 64.7224 99.0063 59.3193 93.9435C53.9202 88.8845 50.7489 81.8922 50.5003 74.5C50.7489 67.1078 53.9202 60.1155 59.3193 55.0565C64.7224 49.9937 71.915 47.2809 79.3176 47.5139ZM54.0837 74.4796L54.0829 74.5L54.0837 74.5204C54.3468 80.9652 57.1529 87.0436 61.8881 91.4258C66.619 95.804 72.8906 98.1331 79.3333 97.9052C85.7761 98.1331 92.0477 95.804 96.7785 91.4258C101.514 87.0436 104.32 80.9652 104.583 74.5204L104.584 74.5L104.583 74.4796C104.32 68.0348 101.514 61.9564 96.7785 57.5742C92.0477 53.196 85.7761 50.8669 79.3333 51.0948C72.8906 50.8669 66.619 53.196 61.8881 57.5742C57.1529 61.9564 54.3468 68.0348 54.0837 74.4796Z" fill="#0066FF" stroke="#0066FF"/>
</g>
<defs>
<filter id="filter0_d_2_2143" x="0" y="0" width="158" height="158" filterUnits="userSpaceOnUse" color-interpolation-filters="sRGB">
<feFlood flood-opacity="0" result="BackgroundImageFix"/>
<feColorMatrix in="SourceAlpha" type="matrix" values="0 0 0 0 0 0 0 0 0 0 0 0 0 0 0 0 0 0 127 0" result="hardAlpha"/>
<feOffset dy="4"/>
<feGaussianBlur stdDeviation="2"/>
<feComposite in2="hardAlpha" operator="out"/>
<feColorMatrix type="matrix" values="0 0 0 0 0 0 0 0 0 0 0 0 0 0 0 0 0 0 0.25 0"/>
<feBlend mode="normal" in2="BackgroundImageFix" result="effect1_dropShadow_2_2143"/>
<feBlend mode="normal" in="SourceGraphic" in2="effect1_dropShadow_2_2143" result="shape"/>
</filter>
</defs>
</svg>
